<svg width="30" height="30" viewBox="0 0 30 30" fill="none" xmlns="http://www.w3.org/2000/svg">
<path d="M16.3636 13.6364C17.1168 14.3895 17.1168 15.6105 16.3636 16.3636C15.6105 17.1168 14.3895 17.1168 13.6364 16.3636C12.8832 15.6105 12.8832 14.3895 13.6364 13.6364C14.3895 12.8832 15.6105 12.8832 16.3636 13.6364ZM13.5858 8.2324C14.3668 7.45135 15.6332 7.45135 16.4142 8.2324L16.4767 8.29488C17.2577 9.07593 18.5241 9.07593 19.3051 8.29488L19.8858 7.71421C20.6668 6.93317 20.6668 5.66683 19.8858 4.88579L16.4142 1.41421C15.6332 0.633165 14.3668 0.633165 13.5858 1.41421L10.1142 4.88579C9.33317 5.66683 9.33317 6.93317 10.1142 7.71421L10.6949 8.29488C11.4759 9.07593 12.7423 9.07593 13.5233 8.29488L13.5858 8.2324ZM8.2324 16.4142C7.45135 15.6332 7.45135 14.3668 8.2324 13.5858L8.29488 13.5233C9.07593 12.7423 9.07593 11.4759 8.29488 10.6949L7.71421 10.1142C6.93316 9.33317 5.66683 9.33317 4.88579 10.1142L1.41421 13.5858C0.633165 14.3668 0.633165 15.6332 1.41421 16.4142L4.88579 19.8858C5.66683 20.6668 6.93317 20.6668 7.71421 19.8858L8.29488 19.3051C9.07593 18.5241 9.07593 17.2577 8.29488 16.4767L8.2324 16.4142ZM21.7676 13.5858C22.5487 14.3668 22.5487 15.6332 21.7676 16.4142L21.7051 16.4767C20.9241 17.2577 20.9241 18.5241 21.7051 19.3051L22.2858 19.8858C23.0668 20.6668 24.3332 20.6668 25.1142 19.8858L28.5858 16.4142C29.3668 15.6332 29.3668 14.3668 28.5858 13.5858L25.1142 10.1142C24.3332 9.33317 23.0668 9.33317 22.2858 10.1142L21.7051 10.6949C20.9241 11.4759 20.9241 12.7423 21.7051 13.5233L21.7676 13.5858ZM16.4142 21.7676C15.6332 22.5487 14.3668 22.5487 13.5858 21.7676L13.5233 21.7051C12.7423 20.9241 11.4759 20.9241 10.6949 21.7051L10.1142 22.2858C9.33317 23.0668 9.33317 24.3332 10.1142 25.1142L13.5858 28.5858C14.3668 29.3668 15.6332 29.3668 16.4142 28.5858L19.8858 25.1142C20.6668 24.3332 20.6668 23.0668 19.8858 22.2858L19.3051 21.7051C18.5241 20.9241 17.2577 20.9241 16.4767 21.7051L16.4142 21.7676Z" fill="#1D1E25"/>
</svg>
