<svg width="48" height="48" viewBox="0 0 48 48" fill="none" xmlns="http://www.w3.org/2000/svg">
<path d="M17.3884 10.5128C16.9773 10.1029 16.4697 9.80306 15.9123 9.64105C15.3548 9.47903 14.7655 9.46003 14.1988 9.5858C13.6321 9.71157 13.1062 9.97805 12.6696 10.3607C12.2331 10.7433 11.8999 11.2297 11.7009 11.775L0.218671 43.3581C0.0300456 43.8789 -0.0308824 44.4374 0.0410004 44.9867C0.112883 45.5359 0.315479 46.0599 0.631782 46.5146C0.948084 46.9694 1.36886 47.3416 1.85879 47.6C2.34872 47.8585 2.89351 47.9957 3.44742 48C3.85525 47.9972 4.25946 47.9232 4.6418 47.7812L36.2227 36.2969C36.7682 36.0981 37.2548 35.7651 37.6377 35.3286C38.0205 34.8922 38.2873 34.3663 38.4133 33.7996C38.5393 33.2328 38.5205 32.6435 38.3586 32.0859C38.1967 31.5283 37.897 31.0205 37.4871 30.6094L17.3884 10.5128ZM7.2493 34.2472L11.4493 22.6994L25.3005 36.5506L13.7505 40.7506L7.2493 34.2472ZM27.9999 14.75C28.0328 13.5669 28.3192 12.4047 28.8399 11.3419C29.9993 9.02531 32.1868 7.75 34.9999 7.75C36.4655 7.75 37.4062 7.24906 37.9859 6.17281C38.2911 5.5707 38.4662 4.9111 38.4999 4.23688C38.5017 3.77275 38.6877 3.32832 39.0171 3.00136C39.3465 2.6744 39.7924 2.4917 40.2565 2.49344C40.7206 2.49518 41.165 2.68122 41.492 3.01064C41.819 3.34006 42.0017 3.78587 41.9999 4.25C41.9999 7.06313 40.1362 11.25 34.9999 11.25C33.5343 11.25 32.5937 11.7509 32.014 12.8272C31.7087 13.4293 31.5336 14.0889 31.4999 14.7631C31.4991 14.9929 31.4529 15.2203 31.3642 15.4323C31.2755 15.6443 31.1458 15.8367 30.9827 15.9986C30.8196 16.1605 30.6262 16.2887 30.4136 16.3759C30.2009 16.463 29.9732 16.5074 29.7434 16.5066C29.5135 16.5057 29.2861 16.4596 29.0742 16.3708C28.8622 16.2821 28.6697 16.1525 28.5078 15.9894C28.3459 15.8262 28.2178 15.6328 28.1306 15.4202C28.0435 15.2075 27.9991 14.9798 27.9999 14.75ZM22.7499 7.75V2.5C22.7499 2.03587 22.9343 1.59075 23.2625 1.26256C23.5907 0.934374 24.0358 0.75 24.4999 0.75C24.9641 0.75 25.4092 0.934374 25.7374 1.26256C26.0655 1.59075 26.2499 2.03587 26.2499 2.5V7.75C26.2499 8.21413 26.0655 8.65925 25.7374 8.98744C25.4092 9.31563 24.9641 9.5 24.4999 9.5C24.0358 9.5 23.5907 9.31563 23.2625 8.98744C22.9343 8.65925 22.7499 8.21413 22.7499 7.75ZM44.988 25.7619C45.1505 25.9245 45.2793 26.1175 45.3672 26.3298C45.4551 26.5422 45.5002 26.7698 45.5001 26.9997C45.5 27.2295 45.4546 27.4571 45.3666 27.6694C45.2785 27.8817 45.1495 28.0746 44.9869 28.237C44.8244 28.3995 44.6314 28.5283 44.419 28.6162C44.2066 28.704 43.979 28.7492 43.7491 28.7491C43.5193 28.749 43.2917 28.7036 43.0794 28.6156C42.8671 28.5275 42.6742 28.3985 42.5118 28.2359L39.0118 24.7359C38.6834 24.4076 38.4989 23.9622 38.4989 23.4978C38.4989 23.0334 38.6834 22.5881 39.0118 22.2597C39.3402 21.9313 39.7855 21.7468 40.2499 21.7468C40.7143 21.7468 41.1597 21.9313 41.488 22.2597L44.988 25.7619ZM46.0534 16.4103L40.8034 18.1603C40.363 18.3071 39.8824 18.2729 39.4672 18.0654C39.0521 17.8578 38.7364 17.4938 38.5896 17.0534C38.4428 16.6131 38.477 16.1325 38.6846 15.7173C38.8921 15.3022 39.2561 14.9865 39.6965 14.8397L44.9465 13.0897C45.3868 12.9429 45.8674 12.9771 46.2826 13.1846C46.6978 13.3922 47.0135 13.7562 47.1602 14.1966C47.307 14.6369 47.2729 15.1175 47.0653 15.5327C46.8577 15.9478 46.4937 16.2635 46.0534 16.4103Z" fill="#1D1E25"/>
</svg>
