<svg width="1240" height="443" viewBox="0 0 1240 443" fill="none" xmlns="http://www.w3.org/2000/svg">
<g filter="url(#filter0_b_506_11938)">
<mask id="path-1-inside-1_506_11938" fill="white">
<path fill-rule="evenodd" clip-rule="evenodd" d="M10.5442 10.5442C0 21.0883 0 38.0589 0 72V371C0 404.941 0 421.912 10.5442 432.456C21.0883 443 38.0589 443 72 443H1239.8C1239.89 443 1239.94 443 1239.97 442.971C1239.99 442.949 1240 442.919 1240 442.867C1240 442.848 1240 442.826 1240 442.8V92C1240 69.3726 1240 58.0589 1232.97 51.0294C1225.94 44 1214.63 44 1192 44H1152C1139.85 44 1130 34.1503 1130 22C1130 9.84974 1120.15 0 1108 0H72C38.0589 0 21.0883 0 10.5442 10.5442Z"/>
</mask>
<path fill-rule="evenodd" clip-rule="evenodd" d="M10.5442 10.5442C0 21.0883 0 38.0589 0 72V371C0 404.941 0 421.912 10.5442 432.456C21.0883 443 38.0589 443 72 443H1239.8C1239.89 443 1239.94 443 1239.97 442.971C1239.99 442.949 1240 442.919 1240 442.867C1240 442.848 1240 442.826 1240 442.8V92C1240 69.3726 1240 58.0589 1232.97 51.0294C1225.94 44 1214.63 44 1192 44H1152C1139.85 44 1130 34.1503 1130 22C1130 9.84974 1120.15 0 1108 0H72C38.0589 0 21.0883 0 10.5442 10.5442Z" fill="#131B2D"/>
<path d="M1239.97 442.971L1239.26 442.263L1239.26 442.264L1239.97 442.971ZM1240 442.867L1239 442.836V442.836L1240 442.867ZM1232.97 51.0294L1233.68 50.3223L1232.97 51.0294ZM1 72C1 55.0012 1.00212 42.3526 2.3091 32.6315C3.61221 22.9391 6.19595 16.3066 11.2513 11.2513L9.83705 9.83705C4.3482 15.3259 1.65986 22.4508 0.326937 32.365C-1.00212 42.2504 -1 55.0577 -1 72H1ZM1 371V72H-1V371H1ZM11.2513 431.749C6.19595 426.693 3.61221 420.061 2.3091 410.369C1.00212 400.647 1 387.999 1 371H-1C-1 387.942 -1.00212 400.75 0.326937 410.635C1.65986 420.549 4.3482 427.674 9.83705 433.163L11.2513 431.749ZM72 442C55.0012 442 42.3526 441.998 32.6315 440.691C22.9391 439.388 16.3066 436.804 11.2513 431.749L9.83705 433.163C15.3259 438.652 22.4508 441.34 32.365 442.673C42.2504 444.002 55.0577 444 72 444V442ZM1239.8 442H72V444H1239.8V442ZM1239.26 442.264C1239.47 442.062 1239.69 442.017 1239.78 442.005C1239.8 442.002 1239.81 442.001 1239.82 442.001C1239.83 442 1239.83 442 1239.83 442C1239.84 442 1239.84 442 1239.84 442C1239.84 442 1239.83 442 1239.83 442C1239.82 442 1239.81 442 1239.8 442V444C1239.82 444 1239.93 444.002 1240.04 443.987C1240.18 443.969 1240.45 443.909 1240.68 443.678L1239.26 442.264ZM1239 442.836C1239 442.835 1239 442.821 1239 442.798C1239.01 442.775 1239.01 442.734 1239.02 442.682C1239.05 442.565 1239.12 442.405 1239.26 442.263L1240.68 443.679C1241.01 443.35 1241 442.934 1241 442.898L1239 442.836ZM1239 442.8C1239 442.814 1239 442.822 1239 442.829C1239 442.836 1239 442.837 1239 442.836L1241 442.899C1241 442.86 1241 442.821 1241 442.8H1239ZM1239 92V442.8H1241V92H1239ZM1192 43H1152V45H1192V43ZM72 1H1108V-1H72V1ZM11.2513 11.2513C16.3066 6.19595 22.9391 3.61221 32.6315 2.3091C42.3526 1.00212 55.0012 1 72 1V-1C55.0577 -1 42.2504 -1.00212 32.365 0.326937C22.4508 1.65986 15.3259 4.3482 9.83705 9.83705L11.2513 11.2513ZM1131 22C1131 9.29745 1120.7 -1 1108 -1V1C1119.6 1 1129 10.402 1129 22H1131ZM1152 43C1140.4 43 1131 33.598 1131 22H1129C1129 34.7025 1139.3 45 1152 45V43ZM1241 92C1241 80.7146 1241 72.1499 1240.11 65.5322C1239.22 58.8858 1237.41 54.0538 1233.68 50.3223L1232.26 51.7365C1235.56 55.0345 1237.27 59.3741 1238.13 65.7987C1239 72.2521 1239 80.658 1239 92H1241ZM1192 45C1203.34 45 1211.75 45.0021 1218.2 45.8698C1224.63 46.7335 1228.97 48.4386 1232.26 51.7365L1233.68 50.3223C1229.95 46.5908 1225.11 44.7812 1218.47 43.8876C1211.85 42.9979 1203.29 43 1192 43V45Z" fill="url(#paint0_linear_506_11938)" fill-opacity="0.2" mask="url(#path-1-inside-1_506_11938)"/>
</g>
<defs>
<filter id="filter0_b_506_11938" x="-96" y="-96" width="1432" height="635" filterUnits="userSpaceOnUse" color-interpolation-filters="sRGB">
<feFlood flood-opacity="0" result="BackgroundImageFix"/>
<feGaussianBlur in="BackgroundImageFix" stdDeviation="48"/>
<feComposite in2="SourceAlpha" operator="in" result="effect1_backgroundBlur_506_11938"/>
<feBlend mode="normal" in="SourceGraphic" in2="effect1_backgroundBlur_506_11938" result="shape"/>
</filter>
<linearGradient id="paint0_linear_506_11938" x1="620" y1="0" x2="620" y2="446" gradientUnits="userSpaceOnUse">
<stop stop-color="white" stop-opacity="0.41"/>
<stop offset="1" stop-color="#DADCF6"/>
</linearGradient>
</defs>
</svg>
