<svg width="24" height="18" viewBox="0 0 24 18" fill="none" xmlns="http://www.w3.org/2000/svg">
<path d="M5.05499 0.245932C4.98913 0.171688 4.90918 0.111255 4.81979 0.0681355C4.7304 0.0250158 4.63334 6.70156e-05 4.53423 -0.00526463C4.43513 -0.0105963 4.33595 0.00379509 4.24245 0.0370755C4.14895 0.0703559 4.06298 0.121863 3.98953 0.188612C3.91608 0.255362 3.85661 0.336025 3.81457 0.425927C3.77252 0.515829 3.74874 0.613183 3.7446 0.712344C3.74045 0.811506 3.75603 0.910504 3.79043 1.0036C3.82483 1.0967 3.87737 1.18204 3.94499 1.25468L5.74874 3.23937C2.34374 5.32906 0.879366 8.55031 0.814679 8.69656C0.772035 8.79247 0.75 8.89627 0.75 9.00124C0.75 9.10621 0.772035 9.21001 0.814679 9.30593C0.847491 9.37999 1.64155 11.1406 3.40687 12.9059C5.75905 15.2572 8.72999 16.5003 12 16.5003C13.6806 16.5099 15.3442 16.1639 16.8816 15.485L18.9441 17.7547C19.0099 17.8289 19.0899 17.8894 19.1793 17.9325C19.2686 17.9756 19.3657 18.0005 19.4648 18.0059C19.5639 18.0112 19.6631 17.9968 19.7566 17.9635C19.8501 17.9303 19.9361 17.8788 20.0095 17.812C20.083 17.7453 20.1424 17.6646 20.1845 17.5747C20.2265 17.4848 20.2503 17.3874 20.2544 17.2883C20.2586 17.1891 20.243 17.0901 20.2086 16.997C20.1742 16.9039 20.1217 16.8186 20.0541 16.7459L5.05499 0.245932ZM9.49218 7.35593L13.3987 11.6544C12.8105 11.9639 12.136 12.0692 11.4814 11.9538C10.8268 11.8385 10.229 11.509 9.78189 11.0171C9.33481 10.5251 9.06377 9.89867 9.01134 9.23601C8.9589 8.57335 9.12803 7.91205 9.49218 7.35593ZM12 15.0003C9.11437 15.0003 6.59343 13.9512 4.50655 11.8831C3.64997 11.0319 2.92145 10.0608 2.34374 9.00031C2.78343 8.17624 4.18687 5.86999 6.7828 4.37093L8.4703 6.2225C7.81699 7.05922 7.48052 8.09996 7.52036 9.16078C7.56021 10.2216 7.97379 11.2342 8.68802 12.0195C9.40225 12.8049 10.3711 13.3125 11.4234 13.4525C12.4757 13.5926 13.5436 13.3562 14.4384 12.785L15.8194 14.3037C14.6006 14.7713 13.3053 15.0076 12 15.0003ZM12.5625 6.05374C12.3671 6.01645 12.1944 5.90305 12.0826 5.73848C11.9708 5.57392 11.9289 5.37168 11.9662 5.17624C12.0035 4.98081 12.1169 4.8082 12.2815 4.69638C12.4461 4.58457 12.6483 4.5427 12.8437 4.57999C13.7996 4.76531 14.67 5.25467 15.325 5.97508C15.98 6.69549 16.3846 7.60835 16.4784 8.57749C16.4969 8.77554 16.436 8.97282 16.3091 9.12596C16.1822 9.27909 15.9996 9.37553 15.8016 9.39406C15.7781 9.39543 15.7547 9.39543 15.7312 9.39406C15.5438 9.39486 15.3628 9.32544 15.224 9.19946C15.0852 9.07348 14.9986 8.90009 14.9812 8.71343C14.9181 8.0688 14.6486 7.46176 14.2128 6.98257C13.7771 6.50337 13.1982 6.17762 12.5625 6.05374ZM23.1825 9.30593C23.1431 9.39406 22.1934 11.4969 20.055 13.4122C19.9819 13.4797 19.8961 13.532 19.8027 13.5661C19.7092 13.6001 19.6099 13.6153 19.5105 13.6105C19.4111 13.6058 19.3136 13.5814 19.2238 13.5387C19.1339 13.4959 19.0535 13.4357 18.9871 13.3616C18.9208 13.2875 18.8698 13.2009 18.8373 13.1069C18.8047 13.0128 18.7912 12.9133 18.7975 12.814C18.8037 12.7147 18.8297 12.6176 18.8739 12.5285C18.918 12.4393 18.9795 12.3599 19.0547 12.2947C20.1038 11.3521 20.9851 10.2382 21.6609 9.00031C21.0819 7.93885 20.3518 6.96713 19.4934 6.11562C17.4066 4.04937 14.8856 3.00031 12 3.00031C11.392 2.99957 10.7849 3.04879 10.185 3.14749C10.0874 3.16475 9.98741 3.1625 9.89073 3.14088C9.79404 3.11926 9.70259 3.0787 9.62167 3.02154C9.54074 2.96437 9.47195 2.89174 9.41925 2.80784C9.36656 2.72394 9.33101 2.63043 9.31466 2.53271C9.29832 2.43499 9.30149 2.335 9.32401 2.23852C9.34652 2.14203 9.38793 2.05097 9.44584 1.97058C9.50375 1.89019 9.57702 1.82207 9.6614 1.77015C9.74579 1.71824 9.83963 1.68356 9.93749 1.66812C10.6192 1.55556 11.309 1.49943 12 1.50031C15.27 1.50031 18.2409 2.74343 20.5931 5.09562C22.3584 6.86093 23.1525 8.62249 23.1853 8.69656C23.2279 8.79247 23.25 8.89627 23.25 9.00124C23.25 9.10621 23.2279 9.21001 23.1853 9.30593H23.1825Z" fill="#1D1E25"/>
</svg>
