<svg width="21" height="20" viewBox="0 0 21 20" fill="none" xmlns="http://www.w3.org/2000/svg">
<g clip-path="url(#clip0_604_478)">
<path d="M20.3081 10.2312C20.3081 9.55141 20.253 8.86797 20.1354 8.19922H10.7031V12.05H16.1046C15.8804 13.292 15.1602 14.3907 14.1057 15.0888V17.5874H17.3282C19.2205 15.8457 20.3081 13.2736 20.3081 10.2312Z" fill="#4285F4"/>
<path d="M10.6997 19.9998C13.3967 19.9998 15.6712 19.1143 17.3284 17.5857L14.1059 15.0871C13.2093 15.697 12.0519 16.0424 10.7034 16.0424C8.0945 16.0424 5.88248 14.2824 5.0888 11.916H1.76343V14.4918C3.46102 17.8686 6.91867 19.9998 10.6997 19.9998Z" fill="#34A853"/>
<path d="M5.08857 11.9163C4.66969 10.6743 4.66969 9.32947 5.08857 8.0875V5.51172H1.76688C0.348541 8.33737 0.348541 11.6664 1.76688 14.4921L5.08857 11.9163Z" fill="#FBBC04"/>
<path d="M10.6997 3.95805C12.1254 3.93601 13.5033 4.47247 14.5358 5.45723L17.3908 2.60218C15.583 0.904588 13.1836 -0.0287217 10.6997 0.000673889C6.91867 0.000673889 3.46102 2.13185 1.76343 5.51234L5.08512 8.08813C5.87513 5.71811 8.09082 3.95805 10.6997 3.95805Z" fill="#EA4335"/>
</g>
<defs>
<clipPath id="clip0_604_478">
<rect width="20" height="20" fill="white" transform="translate(0.5)"/>
</clipPath>
</defs>
</svg>
