<svg width="26" height="22" viewBox="0 0 26 22" fill="none" xmlns="http://www.w3.org/2000/svg">
<path d="M24 0H6C5.46957 0 4.96086 0.210714 4.58579 0.585786C4.21071 0.960859 4 1.46957 4 2V4H2C1.46957 4 0.960859 4.21071 0.585786 4.58579C0.210714 4.96086 0 5.46957 0 6V20C0 20.5304 0.210714 21.0391 0.585786 21.4142C0.960859 21.7893 1.46957 22 2 22H20C20.5304 22 21.0391 21.7893 21.4142 21.4142C21.7893 21.0391 22 20.5304 22 20V18H24C24.5304 18 25.0391 17.7893 25.4142 17.4142C25.7893 17.0391 26 16.5304 26 16V2C26 1.46957 25.7893 0.960859 25.4142 0.585786C25.0391 0.210714 24.5304 0 24 0ZM18.5 4C18.7967 4 19.0867 4.08797 19.3334 4.2528C19.58 4.41762 19.7723 4.65189 19.8858 4.92597C19.9993 5.20006 20.0291 5.50166 19.9712 5.79264C19.9133 6.08361 19.7704 6.35088 19.5607 6.56066C19.3509 6.77044 19.0836 6.9133 18.7926 6.97118C18.5017 7.02906 18.2001 6.99935 17.926 6.88582C17.6519 6.77229 17.4176 6.58003 17.2528 6.33335C17.088 6.08668 17 5.79667 17 5.5C17 5.10218 17.158 4.72064 17.4393 4.43934C17.7206 4.15804 18.1022 4 18.5 4ZM20 20H2V6H4V16C4 16.5304 4.21071 17.0391 4.58579 17.4142C4.96086 17.7893 5.46957 18 6 18H20V20ZM24 16H6V11.5L10.5 7L16.7075 13.2075C16.895 13.3949 17.1493 13.5002 17.4144 13.5002C17.6795 13.5002 17.9337 13.3949 18.1213 13.2075L21.3288 10L24 12.6725V16Z" fill="white"/>
</svg>
