<svg width="17" height="14" viewBox="0 0 17 14" fill="none" xmlns="http://www.w3.org/2000/svg">
<path d="M15.5752 0.125H4.3252C3.99367 0.125 3.67573 0.256696 3.44131 0.491116C3.20689 0.725537 3.0752 1.04348 3.0752 1.375V2.625H1.8252C1.49367 2.625 1.17573 2.7567 0.941312 2.99112C0.706891 3.22554 0.575195 3.54348 0.575195 3.875V12.625C0.575195 12.9565 0.706891 13.2745 0.941312 13.5089C1.17573 13.7433 1.49367 13.875 1.8252 13.875H13.0752C13.4067 13.875 13.7247 13.7433 13.9591 13.5089C14.1935 13.2745 14.3252 12.9565 14.3252 12.625V11.375H15.5752C15.9067 11.375 16.2247 11.2433 16.4591 11.0089C16.6935 10.7745 16.8252 10.4565 16.8252 10.125V1.375C16.8252 1.04348 16.6935 0.725537 16.4591 0.491116C16.2247 0.256696 15.9067 0.125 15.5752 0.125ZM12.1377 2.625C12.3231 2.625 12.5044 2.67998 12.6585 2.783C12.8127 2.88601 12.9329 3.03243 13.0038 3.20373C13.0748 3.37504 13.0934 3.56354 13.0572 3.7454C13.021 3.92725 12.9317 4.0943 12.8006 4.22541C12.6695 4.35652 12.5024 4.44581 12.3206 4.48199C12.1387 4.51816 11.9502 4.49959 11.7789 4.42864C11.6076 4.35768 11.4612 4.23752 11.3582 4.08335C11.2552 3.92918 11.2002 3.74792 11.2002 3.5625C11.2002 3.31386 11.299 3.0754 11.4748 2.89959C11.6506 2.72377 11.8891 2.625 12.1377 2.625ZM13.0752 12.625H1.8252V3.875H3.0752V10.125C3.0752 10.4565 3.20689 10.7745 3.44131 11.0089C3.67573 11.2433 3.99367 11.375 4.3252 11.375H13.0752V12.625ZM15.5752 10.125H4.3252V7.3125L7.1377 4.5L11.0174 8.37969C11.1346 8.49681 11.2935 8.5626 11.4592 8.5626C11.6249 8.5626 11.7838 8.49681 11.901 8.37969L13.9057 6.375L15.5752 8.04531V10.125Z" fill="white"/>
</svg>
