<svg width="116" height="32" viewBox="0 0 116 32" fill="none" xmlns="http://www.w3.org/2000/svg">
<path d="M27.1017 28.1064C24.5945 28.1064 24.5945 26.4051 24.5945 21.5103V12.7127C24.3587 9.90863 23.5395 8.54759 21.7812 7.67849C21.0034 7.29723 20.3166 6.7233 19.9773 5.93619L19.8201 5.57543C18.8933 3.43548 16.7709 1.73828 14.4251 1.73828H7.86336C3.47785 2.34911 1.8519 7.22754 1.89741 9.306C2.00084 13.713 5.63337 16.4679 8.50464 16.4679H13.3287V20.469C13.3659 21.7849 12.0586 22.9943 10.6726 22.8426C8.83562 22.6786 8.51705 21.1946 8.59153 20.469" stroke="white" stroke-width="2.2659" stroke-linecap="round" stroke-linejoin="round"/>
<path d="M17.0394 16.2578V21.7225C17.0394 25.6252 13.2538 30.2372 8.44629 26.7977" stroke="white" stroke-width="2.2659" stroke-linecap="round" stroke-linejoin="round"/>
<path d="M20.8184 16.2578V30.3315" stroke="white" stroke-width="2.2659" stroke-linecap="round" stroke-linejoin="round"/>
<path d="M13.1265 13.2462C13.924 13.2462 14.5704 12.6057 14.5704 11.8155C14.5704 11.0253 13.924 10.3848 13.1265 10.3848C12.3291 10.3848 11.6826 11.0253 11.6826 11.8155C11.6826 12.6057 12.3291 13.2462 13.1265 13.2462Z" fill="white"/>
<path d="M41.3098 0.841797C44.8306 0.841797 47.2427 3.21542 47.2427 6.68771C47.2427 10.16 44.8306 12.5336 41.3098 12.5336C37.789 12.5336 35.377 10.16 35.377 6.68771C35.377 3.21542 37.789 0.841797 41.3098 0.841797ZM41.3098 10.697C43.5894 10.697 45.1699 9.06134 45.1699 6.68771C45.1699 4.31409 43.5894 2.67838 41.3098 2.67838C39.0302 2.67838 37.4497 4.31409 37.4497 6.68771C37.4497 9.06134 39.0302 10.697 41.3098 10.697Z" fill="white" stroke="white" stroke-width="0.308986" stroke-miterlimit="10"/>
<path d="M56.675 11.085C55.9096 12.0115 54.7181 12.5321 53.3279 12.5321C50.7256 12.5321 48.959 10.8144 48.959 8.3055C48.959 5.7966 50.7256 4.0625 53.3279 4.0625C54.5526 4.0625 55.6241 4.46835 56.4392 5.25956C56.6088 5.42764 56.6957 5.64901 56.6957 5.88269C56.6957 6.40333 56.3564 6.75998 55.8269 6.75998C55.6076 6.75998 55.3842 6.6739 55.2145 6.52221C54.7057 6.03437 54.0768 5.7638 53.3279 5.7638C51.8675 5.7638 50.8621 6.79278 50.8621 8.3055C50.8621 9.81823 51.8634 10.8308 53.3279 10.8308C54.143 10.8308 54.8422 10.5438 55.2642 10.0068C55.4338 9.80593 55.6738 9.67065 55.9593 9.67065C56.5054 9.67065 56.8612 10.0232 56.8612 10.5479C56.8612 10.7488 56.795 10.9374 56.675 11.085Z" fill="white" stroke="white" stroke-width="0.308986" stroke-miterlimit="10"/>
<path d="M64.4125 11.1182C63.9367 12.0447 62.9686 12.5326 61.6571 12.5326C59.7001 12.5326 58.5293 11.3191 58.5293 9.28166V2.47646C58.5293 1.85333 58.8851 1.48438 59.4643 1.48438C60.0435 1.48438 60.3993 1.85333 60.3993 2.47646V4.26385H63.221C63.8002 4.26385 64.156 4.58361 64.156 5.12475C64.156 5.66589 63.8002 5.96515 63.221 5.96515H60.3993V9.33496C60.3993 10.2942 60.9082 10.8354 61.744 10.8354C62.2901 10.8354 62.6955 10.5812 62.952 10.1795C63.1051 9.94169 63.3451 9.77361 63.6678 9.77361C64.1601 9.77361 64.5366 10.077 64.5366 10.6345C64.5366 10.819 64.487 10.9871 64.4166 11.1223L64.4125 11.1182Z" fill="white" stroke="white" stroke-width="0.308986" stroke-miterlimit="10"/>
<path d="M70.0731 4.06055C72.6589 4.06055 74.442 5.77825 74.442 8.30355C74.442 10.8289 72.6589 12.5302 70.0731 12.5302C67.4873 12.5302 65.7041 10.8125 65.7041 8.30355C65.7041 5.79464 67.4707 4.06055 70.0731 4.06055ZM70.0731 10.833C71.5542 10.833 72.5389 9.80398 72.5389 8.30765C72.5389 6.81133 71.5542 5.76595 70.0731 5.76595C68.5919 5.76595 67.6072 6.79493 67.6072 8.30765C67.6072 9.82037 68.6085 10.833 70.0731 10.833Z" fill="white" stroke="white" stroke-width="0.308986" stroke-miterlimit="10"/>
<path d="M41.3098 16.4414C44.8306 16.4414 47.2427 18.815 47.2427 22.2873C47.2427 25.7596 44.8306 28.1332 41.3098 28.1332C37.789 28.1332 35.377 25.7596 35.377 22.2873C35.377 18.815 37.789 16.4414 41.3098 16.4414ZM41.3098 26.2967C43.5894 26.2967 45.1699 24.6609 45.1699 22.2873C45.1699 19.9137 43.5894 18.278 41.3098 18.278C39.0302 18.278 37.4497 19.9137 37.4497 22.2873C37.4497 24.6609 39.0302 26.2967 41.3098 26.2967Z" fill="white" stroke="white" stroke-width="0.308986" stroke-miterlimit="10"/>
<path d="M57.988 23.9014C57.988 26.4472 56.391 28.128 54.008 28.128C52.7668 28.128 51.7987 27.6894 51.1863 26.9473H51.1533V30.1655C51.1533 30.7886 50.814 31.1576 50.2182 31.1576C49.6225 31.1576 49.2832 30.7886 49.2832 30.1655V20.7489C49.2832 20.1421 49.639 19.7568 50.2182 19.7568C50.7974 19.7568 51.1533 20.1462 51.1533 20.7489V20.835H51.1863C51.7987 20.0929 52.7668 19.6543 54.008 19.6543C56.3869 19.6543 57.988 21.3392 57.988 23.8973V23.9014ZM56.0849 23.9014C56.0849 22.3846 55.0837 21.3597 53.6356 21.3597C52.1876 21.3597 51.1533 22.4051 51.1533 23.9014C51.1533 25.3977 52.1917 26.4267 53.6356 26.4267C55.0795 26.4267 56.0849 25.3977 56.0849 23.9014Z" fill="white" stroke="white" stroke-width="0.308986" stroke-miterlimit="10"/>
<path d="M65.7367 26.714C65.2609 27.6404 64.2928 28.1283 62.9813 28.1283C61.0244 28.1283 59.8535 26.9148 59.8535 24.8774V18.0722C59.8535 17.449 60.2093 17.0801 60.7885 17.0801C61.3678 17.0801 61.7236 17.449 61.7236 18.0722V19.8596H64.5452C65.1244 19.8596 65.4802 20.1793 65.4802 20.7205C65.4802 21.2616 65.1244 21.5609 64.5452 21.5609H61.7236V24.9307C61.7236 25.89 62.2325 26.4311 63.0682 26.4311C63.6143 26.4311 64.0198 26.1769 64.2763 25.7752C64.4293 25.5374 64.6693 25.3693 64.992 25.3693C65.4843 25.3693 65.8608 25.6727 65.8608 26.2302C65.8608 26.4147 65.8112 26.5828 65.7409 26.7181L65.7367 26.714Z" fill="white" stroke="white" stroke-width="0.308986" stroke-miterlimit="10"/>
<path d="M67.2998 17.3844C67.2998 16.7121 67.7425 16.2734 68.4045 16.2734C69.0664 16.2734 69.5257 16.7121 69.5257 17.3844C69.5257 18.0567 69.083 18.4954 68.4045 18.4954C67.7259 18.4954 67.2998 18.0567 67.2998 17.3844ZM69.3395 20.7542V27.0388C69.3395 27.6619 69.0002 28.0309 68.4045 28.0309C67.8087 28.0309 67.4694 27.6619 67.4694 27.0388V20.7542C67.4694 20.1475 67.8252 19.7621 68.4045 19.7621C68.9837 19.7621 69.3395 20.1516 69.3395 20.7542Z" fill="white" stroke="white" stroke-width="0.308986" stroke-miterlimit="10"/>
<path d="M84.3014 23.2285V27.037C84.3014 27.6601 83.9456 28.029 83.3664 28.029C82.7872 28.029 82.4314 27.6601 82.4314 27.037V23.4499C82.4314 22.0847 81.8521 21.3632 80.764 21.3632C79.6759 21.3632 78.9436 22.2405 78.9436 23.704V27.0411C78.9436 27.6642 78.6044 28.0331 78.0086 28.0331C77.4128 28.0331 77.0736 27.6642 77.0736 27.0411V23.454C77.0736 22.0888 76.4944 21.3673 75.4063 21.3673C74.3182 21.3673 73.5859 22.2446 73.5859 23.7081V27.0452C73.5859 27.6683 73.2466 28.0372 72.6508 28.0372C72.0551 28.0372 71.7158 27.6683 71.7158 27.0452V20.7606C71.7158 20.1539 72.0716 19.7685 72.6508 19.7685C73.2301 19.7685 73.5693 20.1375 73.5859 20.7278H73.619C74.1113 20.0555 74.9098 19.666 75.8614 19.666C76.9991 19.666 77.8349 20.1047 78.3106 20.9451H78.3437C78.923 20.1211 79.858 19.666 81.1157 19.666C83.2588 19.666 84.2931 20.8959 84.2931 23.2367L84.3014 23.2285Z" fill="white" stroke="white" stroke-width="0.308986" stroke-miterlimit="10"/>
<path d="M86.3232 17.3844C86.3232 16.7121 86.7659 16.2734 87.4279 16.2734C88.0899 16.2734 88.5491 16.7121 88.5491 17.3844C88.5491 18.0567 88.1064 18.4954 87.4279 18.4954C86.7494 18.4954 86.3232 18.0567 86.3232 17.3844ZM88.3629 20.7542V27.0388C88.3629 27.6619 88.0237 28.0309 87.4279 28.0309C86.8321 28.0309 86.4929 27.6619 86.4929 27.0388V20.7542C86.4929 20.1475 86.8487 19.7621 87.4279 19.7621C88.0071 19.7621 88.3629 20.1516 88.3629 20.7542Z" fill="white" stroke="white" stroke-width="0.308986" stroke-miterlimit="10"/>
<path d="M97.0856 26.2261C97.6649 26.2261 98.0041 26.5459 98.0041 27.0665C98.0041 27.5872 97.6649 27.9274 97.0856 27.9274H91.219C90.5901 27.9274 90.2178 27.5585 90.2178 27.0173C90.2178 26.6648 90.3378 26.3942 90.6108 26.1236L95.1163 21.5568H91.3928C90.8135 21.5568 90.4743 21.237 90.4743 20.7164C90.4743 20.1957 90.8135 19.8555 91.3928 19.8555H96.9202C97.549 19.8555 97.9214 20.2408 97.9214 20.7656C97.9214 21.1181 97.8014 21.3887 97.5325 21.6593L93.027 26.2261H97.0898H97.0856Z" fill="white" stroke="white" stroke-width="0.308986" stroke-miterlimit="10"/>
<path d="M103.766 28.1337C101.081 28.1337 99.3105 26.416 99.3105 23.9071C99.3105 21.3982 101.077 19.6641 103.68 19.6641C106.042 19.6641 107.846 21.349 107.846 23.4028V23.4889C107.846 24.1448 107.403 24.5671 106.741 24.5671H101.284C101.503 25.7478 102.455 26.4857 103.766 26.4857C104.652 26.4857 105.33 26.1331 105.74 25.6617C105.943 25.4239 106.166 25.3255 106.435 25.3255C106.977 25.3255 107.32 25.6617 107.32 26.1864C107.32 26.3873 107.25 26.5759 107.118 26.7439C106.369 27.6376 105.198 28.1419 103.766 28.1419V28.1337ZM101.284 23.079H106.025C105.769 22.0008 104.871 21.308 103.68 21.308C102.488 21.308 101.536 21.9967 101.284 23.079Z" fill="white" stroke="white" stroke-width="0.308986" stroke-miterlimit="10"/>
<path d="M115.103 20.6337C115.103 21.2076 114.73 21.5602 114.168 21.5602C112.534 21.5602 111.582 22.4211 111.582 24.3889V27.0331C111.582 27.6562 111.243 28.0252 110.647 28.0252C110.051 28.0252 109.712 27.6562 109.712 27.0331V20.7485C109.712 20.1418 110.068 19.7564 110.647 19.7564C111.226 19.7564 111.582 20.1459 111.582 20.7485V21.0519H111.615C112.124 20.1746 112.993 19.7031 114.164 19.7031C114.726 19.7031 115.099 20.0557 115.099 20.6296L115.103 20.6337Z" fill="white" stroke="white" stroke-width="0.308986" stroke-miterlimit="10"/>
</svg>
