<svg width="66" height="66" viewBox="0 0 66 66" fill="none" xmlns="http://www.w3.org/2000/svg">
<path d="M59.291 58.0059C54.0608 58.0059 54.0608 54.4569 54.0608 44.2459V25.8935C53.5688 20.044 51.86 17.2047 48.1919 15.3917C46.5694 14.5964 45.1367 13.3991 44.4289 11.7572L44.101 11.0046C42.1677 6.54049 37.7402 3 32.8466 3H19.1583C10.0098 4.27424 6.61793 14.451 6.71287 18.7868C6.92864 27.9801 14.5064 33.727 20.4961 33.727H30.5594V42.0737C30.6371 44.8189 27.9098 47.3417 25.0185 47.0253C21.1865 46.6832 20.522 43.5874 20.6773 42.0737" stroke="#1D1E25" stroke-width="4.72683" stroke-linecap="round" stroke-linejoin="round"/>
<path d="M38.3009 33.2891V44.6888C38.3009 52.8302 30.4038 62.4511 20.375 55.276" stroke="#1D1E25" stroke-width="4.72683" stroke-linecap="round" stroke-linejoin="round"/>
<path d="M46.1797 33.2891V62.6478" stroke="#1D1E25" stroke-width="4.72683" stroke-linecap="round" stroke-linejoin="round"/>
<path d="M30.1293 27.0063C31.7928 27.0063 33.1414 25.6701 33.1414 24.0217C33.1414 22.3734 31.7928 21.0371 30.1293 21.0371C28.4658 21.0371 27.1172 22.3734 27.1172 24.0217C27.1172 25.6701 28.4658 27.0063 30.1293 27.0063Z" fill="#1D1E25"/>
</svg>
