<svg width="70" height="79" viewBox="0 0 70 79" fill="none" xmlns="http://www.w3.org/2000/svg">
<path d="M67.0004 69.9532C60.6342 69.9532 60.6342 65.6333 60.6342 53.2045V30.8659C60.0354 23.7459 57.9553 20.29 53.4906 18.0832C51.5156 17.1151 49.7717 15.6578 48.9103 13.6592L48.5111 12.7432C46.1579 7.30948 40.7687 3 34.8123 3H18.1509C7.01536 4.551 2.8868 16.9382 3.00235 22.2157C3.26498 33.4058 12.4886 40.4009 19.7792 40.4009H32.0284V50.5605C32.1229 53.9019 28.8033 56.9727 25.284 56.5875C20.6197 56.1711 19.8108 52.4029 19.9999 50.5605" stroke="white" stroke-width="5.7535" stroke-linecap="round" stroke-linejoin="round"/>
<path d="M41.4522 39.8672V53.7429C41.4522 63.6526 31.8399 75.3632 19.6328 66.6297" stroke="white" stroke-width="5.7535" stroke-linecap="round" stroke-linejoin="round"/>
<path d="M51.0449 39.8672V75.6026" stroke="white" stroke-width="5.7535" stroke-linecap="round" stroke-linejoin="round"/>
<path d="M31.512 32.2208C33.5369 32.2208 35.1784 30.5943 35.1784 28.588C35.1784 26.5816 33.5369 24.9551 31.512 24.9551C29.4872 24.9551 27.8457 26.5816 27.8457 28.588C27.8457 30.5943 29.4872 32.2208 31.512 32.2208Z" fill="white"/>
</svg>
