<svg width="22" height="22" viewBox="0 0 22 22" fill="none" xmlns="http://www.w3.org/2000/svg">
<path d="M18.4505 10.9998C21.1466 7.21437 22.5214 3.30203 20.6095 1.39015C18.6977 -0.521724 14.7853 0.85312 10.9998 3.54921C7.21437 0.85312 3.30203 -0.521724 1.39015 1.39015C-0.521724 3.30203 0.85312 7.21437 3.54921 10.9998C0.85312 14.7853 -0.521724 18.6977 1.39015 20.6095C2.00593 21.2253 2.82843 21.4998 3.78656 21.4998C5.80671 21.4998 8.43281 20.2781 11.0053 18.4505C13.5669 20.2781 16.1919 21.4998 18.2186 21.4998C19.1767 21.4998 20.0003 21.2242 20.615 20.6095C22.5214 18.6977 21.1466 14.7853 18.4505 10.9998ZM19.3725 2.62718C20.2081 3.46281 19.6437 6.17093 17.3469 9.54843C16.6202 8.64892 15.8466 7.78839 15.0292 6.97046C14.2109 6.15451 13.3504 5.38199 12.4512 4.65609C15.8287 2.35921 18.5369 1.79156 19.3725 2.62718ZM2.62718 2.62718C2.86781 2.38546 3.26484 2.26078 3.78874 2.26078C5.08156 2.26078 7.14546 3.01546 9.54734 4.65609C8.64876 5.38225 7.78863 6.15476 6.97046 6.97046C6.1542 7.78848 5.38166 8.649 4.65609 9.54843C2.35921 6.17093 1.79156 3.46281 2.62718 2.62718ZM2.62718 19.3725C1.79156 18.5369 2.35921 15.8287 4.65609 12.4512C5.38273 13.3508 6.15636 14.2113 6.97374 15.0292C7.79123 15.8448 8.65062 16.6173 9.54843 17.3436C6.17093 19.6405 3.46281 20.2081 2.62718 19.3725ZM10.9998 12.3123C10.7403 12.3123 10.4865 12.2354 10.2707 12.0911C10.0548 11.9469 9.88659 11.7419 9.78725 11.5021C9.68791 11.2623 9.66191 10.9984 9.71256 10.7438C9.7632 10.4892 9.8882 10.2553 10.0718 10.0718C10.2553 9.8882 10.4892 9.7632 10.7438 9.71256C10.9984 9.66191 11.2623 9.68791 11.5021 9.78725C11.7419 9.88659 11.9469 10.0548 12.0911 10.2707C12.2354 10.4865 12.3123 10.7403 12.3123 10.9998C12.3123 11.3479 12.1741 11.6818 11.9279 11.9279C11.6818 12.1741 11.3479 12.3123 10.9998 12.3123ZM19.3725 19.3736C18.5369 20.2103 15.8287 19.6448 12.4512 17.348C13.3503 16.6207 14.2107 15.8471 15.0292 15.0303C15.8455 14.2119 16.618 13.3511 17.3436 12.4512C19.6405 15.8287 20.2081 18.5369 19.3725 19.3725V19.3736Z" fill="white"/>
</svg>
