<svg width="36" height="36" viewBox="0 0 36 36" fill="none" xmlns="http://www.w3.org/2000/svg">
<path d="M22.5 7.875H9C8.40326 7.875 7.83097 8.11205 7.40901 8.53401C6.98705 8.95597 6.75 9.52826 6.75 10.125V31.5C6.74999 31.7067 6.80694 31.9094 6.91459 32.0859C7.02223 32.2624 7.17642 32.4058 7.36022 32.5003C7.54401 32.5949 7.75032 32.637 7.95648 32.6221C8.16265 32.6071 8.3607 32.5356 8.52891 32.4155L15.75 27.2573L22.9725 32.4155C23.1407 32.5352 23.3386 32.6064 23.5446 32.6211C23.7505 32.6359 23.9565 32.5937 24.1401 32.4992C24.3237 32.4046 24.4777 32.2614 24.5852 32.0852C24.6928 31.9089 24.7498 31.7065 24.75 31.5V10.125C24.75 9.52826 24.5129 8.95597 24.091 8.53401C23.669 8.11205 23.0967 7.875 22.5 7.875Z" fill="black"/>
<path d="M27 3.375H12.375C12.0766 3.375 11.7905 3.49353 11.5795 3.7045C11.3685 3.91548 11.25 4.20163 11.25 4.5C11.25 4.79837 11.3685 5.08452 11.5795 5.29549C11.7905 5.50647 12.0766 5.625 12.375 5.625H27V27C27 27.2984 27.1185 27.5845 27.3295 27.7955C27.5405 28.0065 27.8266 28.125 28.125 28.125C28.4234 28.125 28.7095 28.0065 28.9205 27.7955C29.1315 27.5845 29.25 27.2984 29.25 27V5.625C29.25 5.02826 29.0129 4.45597 28.591 4.03401C28.169 3.61205 27.5967 3.375 27 3.375Z" fill="black"/>
</svg>
