<svg width="28" height="28" viewBox="0 0 28 28" fill="none" xmlns="http://www.w3.org/2000/svg">
<path d="M24.9981 14.2701C25.0031 14.0901 25.0031 13.9101 24.9981 13.7301L26.8631 11.4001C26.9609 11.2777 27.0286 11.1341 27.0607 10.9808C27.0929 10.8276 27.0885 10.6689 27.0481 10.5176C26.7418 9.36849 26.2845 8.26513 25.6881 7.23631C25.61 7.10171 25.5014 6.98721 25.3712 6.90192C25.241 6.81664 25.0927 6.76292 24.9381 6.74506L21.9731 6.41506C21.8498 6.28506 21.7248 6.16006 21.5981 6.04006L21.2481 3.06756C21.2301 2.91282 21.1762 2.76443 21.0907 2.63422C21.0052 2.50401 20.8904 2.39557 20.7556 2.31756C19.7269 1.72162 18.6234 1.26512 17.4744 0.960057C17.323 0.919632 17.1644 0.915313 17.0111 0.947446C16.8578 0.979579 16.7142 1.04727 16.5919 1.14506L14.2681 3.00006C14.0881 3.00006 13.9081 3.00006 13.7281 3.00006L11.3981 1.13881C11.2758 1.04102 11.1322 0.973329 10.9789 0.941196C10.8256 0.909063 10.6669 0.913382 10.5156 0.953807C9.36654 1.26009 8.26317 1.71741 7.23435 2.31381C7.09975 2.39196 6.98525 2.50046 6.89997 2.63067C6.81468 2.76087 6.76097 2.90919 6.7431 3.06381L6.4131 6.03381C6.2831 6.15797 6.1581 6.28297 6.0381 6.40881L3.0656 6.75006C2.91087 6.76806 2.76248 6.82196 2.63227 6.90747C2.50205 6.99298 2.39362 7.10772 2.3156 7.24256C1.71979 8.27151 1.2629 9.37486 0.956854 10.5238C0.9166 10.6752 0.912483 10.834 0.944834 10.9872C0.977186 11.1405 1.0451 11.2841 1.1431 11.4063L2.9981 13.7301C2.9981 13.9101 2.9981 14.0901 2.9981 14.2701L1.13685 16.6001C1.03906 16.7224 0.971376 16.866 0.939243 17.0193C0.90711 17.1726 0.911429 17.3312 0.951854 17.4826C1.25814 18.6316 1.71546 19.735 2.31185 20.7638C2.39001 20.8984 2.49851 21.0129 2.62872 21.0982C2.75892 21.1835 2.90723 21.2372 3.06185 21.2551L6.02685 21.5851C6.15102 21.7151 6.27602 21.8401 6.40185 21.9601L6.7481 24.9326C6.76611 25.0873 6.82001 25.2357 6.90552 25.3659C6.99102 25.4961 7.10577 25.6045 7.24061 25.6826C8.26956 26.2784 9.37291 26.7353 10.5219 27.0413C10.6733 27.0816 10.832 27.0857 10.9853 27.0533C11.1386 27.021 11.2821 26.9531 11.4044 26.8551L13.7281 25.0001C13.9081 25.0051 14.0881 25.0051 14.2681 25.0001L16.5981 26.8651C16.7204 26.9629 16.864 27.0305 17.0173 27.0627C17.1706 27.0948 17.3293 27.0905 17.4806 27.0501C18.6299 26.7443 19.7333 26.287 20.7619 25.6901C20.8965 25.6119 21.011 25.5034 21.0962 25.3732C21.1815 25.243 21.2352 25.0947 21.2531 24.9401L21.5831 21.9751C21.7131 21.8517 21.8381 21.7267 21.9581 21.6001L24.9306 21.2501C25.0853 21.2321 25.2337 21.1782 25.3639 21.0926C25.4942 21.0071 25.6026 20.8924 25.6806 20.7576C26.2764 19.7286 26.7333 18.6253 27.0394 17.4763C27.0796 17.3249 27.0837 17.1662 27.0514 17.0129C27.019 16.8596 26.9511 16.716 26.8531 16.5938L24.9981 14.2701ZM13.9981 19.0001C13.0092 19.0001 12.0425 18.7068 11.2203 18.1574C10.398 17.608 9.75714 16.8271 9.37871 15.9135C9.00027 14.9998 8.90125 13.9945 9.09418 13.0246C9.2871 12.0547 9.76331 11.1638 10.4626 10.4645C11.1618 9.76526 12.0527 9.28906 13.0227 9.09613C13.9926 8.90321 14.9979 9.00222 15.9115 9.38066C16.8252 9.7591 17.606 10.4 18.1555 11.2222C18.7049 12.0445 18.9981 13.0112 18.9981 14.0001C18.9981 15.3261 18.4713 16.5979 17.5336 17.5356C16.596 18.4733 15.3242 19.0001 13.9981 19.0001Z" fill="white"/>
</svg>
