<svg width="18" height="16" viewBox="0 0 18 16" fill="none" xmlns="http://www.w3.org/2000/svg">
<path d="M15.7503 5.68385C14.242 5.68385 13.6253 4.61718 14.3753 3.30885C14.8087 2.55052 14.5503 1.58385 13.792 1.15052L12.3503 0.325517C11.692 -0.06615 10.842 0.167183 10.4503 0.825517L10.3587 0.98385C9.60866 2.29218 8.37533 2.29218 7.61699 0.98385L7.52532 0.825517C7.15032 0.167183 6.30033 -0.06615 5.64199 0.325517L4.20033 1.15052C3.44199 1.58385 3.18366 2.55885 3.61699 3.31718C4.37533 4.61718 3.75866 5.68385 2.25033 5.68385C1.38366 5.68385 0.666992 6.39218 0.666992 7.26718V8.73385C0.666992 9.60052 1.37533 10.3172 2.25033 10.3172C3.75866 10.3172 4.37533 11.3838 3.61699 12.6922C3.18366 13.4505 3.44199 14.4172 4.20033 14.8505L5.64199 15.6755C6.30033 16.0672 7.15033 15.8339 7.54199 15.1755L7.63366 15.0172C8.38366 13.7088 9.61699 13.7088 10.3753 15.0172L10.467 15.1755C10.8587 15.8339 11.7087 16.0672 12.367 15.6755L13.8087 14.8505C14.567 14.4172 14.8253 13.4422 14.392 12.6922C13.6337 11.3838 14.2503 10.3172 15.7587 10.3172C16.6253 10.3172 17.342 9.60885 17.342 8.73385V7.26718C17.3337 6.40052 16.6253 5.68385 15.7503 5.68385ZM9.00033 10.7088C7.50866 10.7088 6.29199 9.49218 6.29199 8.00052C6.29199 6.50885 7.50866 5.29218 9.00033 5.29218C10.492 5.29218 11.7087 6.50885 11.7087 8.00052C11.7087 9.49218 10.492 10.7088 9.00033 10.7088Z" fill="white"/>
</svg>
