<svg width="119" height="52" viewBox="0 0 119 52" fill="none" xmlns="http://www.w3.org/2000/svg">
<path d="M118.855 22.6534C118.628 23.1517 118.178 23.4945 117.648 23.5702L115.79 23.9011C117.209 25.3241 118.541 27.0103 118.405 29.6212C118.373 34.4883 114.993 37.7171 109.077 38.5941V42.6042C109.077 43.3815 108.523 44.0392 107.762 44.1747C106.215 44.4896 69.1275 51.9996 60.3659 51.9996H60.3619C59.5009 51.9996 58.9069 51.9278 58.4844 51.7764L58.4326 51.7564C57.3045 51.294 56.3876 50.5885 55.5585 49.8112C55.0642 49.3408 54.6018 48.8465 54.1434 48.3562C53.9282 48.125 53.0193 47.2321 51.947 46.1678C51.8792 46.1001 51.8115 46.0323 51.7437 45.9645C51.7357 45.9566 51.7278 45.9486 51.7238 45.9406C48.2598 42.369 49.1009 37.7291 49.6549 35.8117L45.6966 36.5173V36.5093C45.3618 36.5731 44.9871 36.6409 44.5845 36.7166L43.4923 36.9119C37.0306 38.0599 24.6814 40.0849 16.8565 41.3565C16.398 41.4283 16.135 41.4721 16.0991 41.4801C13.0696 42.0142 12.2006 42.1657 11.9176 42.2095C11.8418 42.2255 11.7701 42.2295 11.6983 42.2295C10.909 42.2295 10.1596 41.3565 10.1596 41.3565C10.1596 41.3565 7.79582 38.9449 6.54415 37.7092C6.21329 37.4062 6.02195 36.9797 6.02195 36.5293V29.4179L5.74691 29.1389C4.34775 27.7358 2.94859 26.3287 1.54146 24.9375L1.46174 24.8617L1.43383 24.8179L1.40194 24.79C1.20662 24.6146 0.744221 24.208 0.740234 23.4865V20.0664C0.740234 19.2891 1.29432 18.6314 2.05568 18.4958L17.8809 15.7055H17.8929L18.0603 15.6736L19.1047 15.4903C19.9258 15.3308 21.034 15.1195 21.7954 15.0159L28.9187 13.7603L29.134 13.7204H29.1539C29.3094 13.6925 29.8634 13.5928 30.5132 13.4772C32.5741 13.1105 33.156 13.0069 33.3673 12.979L34.9379 12.7039C35.0256 12.68 35.1093 12.6641 35.201 12.6561C35.3285 12.6362 35.7192 12.5604 36.1616 12.4807C37.4332 12.2495 37.788 12.1857 37.9594 12.1698L47.1476 10.5554C47.1915 10.5394 47.2473 10.5275 47.3031 10.5155L47.4546 10.4916H47.4864L47.5702 10.4796C47.6818 10.4597 47.8412 10.4278 48.0126 10.3919C48.5707 10.2803 49.2563 10.1408 49.7666 10.093L51.4607 9.79402C51.5404 9.7701 51.6201 9.75416 51.6999 9.7422L55.2874 9.1084C55.3472 9.09644 55.411 9.09245 55.4788 9.08847L62.0879 7.92451C62.1437 7.90457 62.2075 7.88863 62.2832 7.87667L62.347 7.86471C62.5025 7.8408 63.0566 7.74114 63.7103 7.62554C66.2455 7.17112 66.5525 7.1193 66.696 7.11531L68.0672 6.87216C68.1549 6.84027 68.2466 6.82034 68.3423 6.80838C72.8427 6.01513 74.2219 5.77197 74.6803 5.69624C75.063 5.60854 75.4497 5.54476 75.8961 5.49294L84.7296 3.93834C84.8133 3.91043 84.893 3.8905 84.9727 3.87456L85.0445 3.8626C85.3554 3.81078 87.0734 3.50783 88.8832 3.18495C94.4346 2.20435 97.2662 1.71405 97.3778 1.71405L98.6374 1.49083C98.765 1.44299 98.9005 1.4111 99.044 1.39915C99.7017 1.33138 100.754 1.12011 101.87 0.892902C103.931 0.474354 106.271 0 108.149 0C109.01 0 109.703 0.0996542 110.269 0.302949C111.202 0.577995 111.911 1.07627 112.513 1.62237C112.816 1.89742 116.998 6.19849 117.305 6.58515L117.345 6.63697L117.381 6.68879C119.234 9.6266 118.473 14.0313 115.906 16.419L118.768 21.1745C119.039 21.5931 119.079 22.1591 118.855 22.6534Z" fill="#0F1518"/>
<path d="M2.33496 23.4622L7.61668 22.5295V36.509L11.7623 35.7795V21.8L17.0361 20.8712V17.4551L2.33496 20.0461V23.4622Z" fill="white"/>
<path d="M29.3614 22.2622L22.5052 23.474V16.4903L18.3037 17.2317V34.6273L22.5052 33.8859V26.8942L29.3614 25.6863V32.6781L33.5589 31.9367V14.541L29.3614 15.2824V22.2622Z" fill="white"/>
<path d="M56.1527 17.9115L56.2603 17.8916L63.1844 26.709L66.752 26.0831V8.6875L62.5546 9.42893V19.4502L62.4111 19.4741L55.5667 10.6607L51.9473 11.2984V28.6901L56.1527 27.9527V17.9115Z" fill="white"/>
<path d="M79.5958 22.7799C80.8793 21.8591 81.8719 20.6871 82.5655 19.2641C83.2591 17.841 83.6059 16.2226 83.6059 14.4089C83.6059 12.5952 83.2591 11.1124 82.5615 9.93644C81.8639 8.76052 80.8753 7.93937 79.5918 7.469C78.3082 7.00262 76.7815 6.9229 75.0116 7.2378L68.5898 8.36988V25.7655L75.0196 24.6335C76.7855 24.3225 78.3122 23.7047 79.5958 22.7879V22.7799ZM72.7913 21.4365V11.208L74.7964 10.8533C75.7929 10.6779 76.634 10.6938 77.3156 10.9051C77.9973 11.1163 78.5155 11.5628 78.8663 12.2444C79.2171 12.9261 79.3925 13.8947 79.3925 15.1464C79.3925 16.398 79.2171 17.4304 78.8703 18.2396C78.5235 19.0528 78.0092 19.6826 77.3316 20.1331C76.6539 20.5835 75.8288 20.8944 74.8562 21.0658L72.7913 21.4286V21.4365Z" fill="white"/>
<path d="M97.378 17.2686L89.4574 18.6677V15.0921L96.7601 13.8046V10.3805L89.4574 11.668V8.10037L97.378 6.70521V3.28906L85.252 5.42964V22.8213L97.378 20.6847V17.2686Z" fill="white"/>
<path d="M72.723 26.4961L68.5176 27.2375V44.6292L79.958 42.6122V39.2L72.723 40.4756V26.4961Z" fill="white"/>
<path d="M86.6704 24.0354L80.8027 42.4635L85.3231 41.6663L86.4671 37.8116L92.4743 36.7513L93.6224 40.2034L98.1427 39.4061L92.275 23.0469L86.6784 24.0354H86.6704ZM87.4637 34.4433L89.397 27.9379L89.5325 27.914L91.4698 33.7378L87.4677 34.4433H87.4637Z" fill="white"/>
<path d="M109.775 20.7194C108.827 20.3806 107.703 20.3248 106.399 20.556L99.2119 21.8236V39.2192L103.417 38.4778V33.0765L106.271 32.5743C107.603 32.3391 108.751 31.8926 109.72 31.2269C110.688 30.5652 111.434 29.7361 111.96 28.7475C112.482 27.759 112.745 26.6628 112.745 25.4629C112.745 24.2631 112.486 23.2666 111.972 22.4534C111.458 21.6402 110.724 21.0662 109.775 20.7274V20.7194ZM108.057 27.6832C107.838 28.1217 107.511 28.4884 107.085 28.7834C106.658 29.0784 106.128 29.2857 105.49 29.3973L103.417 29.764V24.4744L105.49 24.1076C106.12 23.996 106.65 24.012 107.077 24.1515C107.507 24.291 107.834 24.5381 108.053 24.8929C108.273 25.2477 108.384 25.6941 108.384 26.2323C108.384 26.7704 108.273 27.2487 108.053 27.6872L108.057 27.6832Z" fill="white"/>
<path d="M103.421 13.6637L105.574 13.285L108.755 18.6783L113.339 17.8691L109.732 11.8819C110.688 11.276 111.434 10.5067 111.956 9.58187C112.482 8.64911 112.745 7.57683 112.745 6.373C112.745 5.16918 112.486 4.20054 111.972 3.42324C111.458 2.64593 110.724 2.1078 109.775 1.80485C108.827 1.50589 107.703 1.47001 106.399 1.70121L99.2119 2.96881V20.3605L103.417 19.6191V13.6637H103.421ZM105.494 5.24492C106.124 5.1333 106.654 5.12932 107.081 5.23296C107.511 5.3366 107.838 5.54388 108.057 5.85879C108.277 6.1737 108.388 6.60022 108.388 7.13835C108.388 7.67648 108.277 8.13489 108.057 8.51756C107.838 8.90024 107.511 9.21116 107.085 9.45431C106.658 9.69747 106.128 9.87286 105.49 9.98447L103.417 10.3512V5.61165L105.49 5.24492H105.494Z" fill="white"/>
<path d="M57.125 33.2481C57.7349 32.7259 58.4604 32.3911 59.3015 32.2436C59.7758 32.1599 60.2103 32.1479 60.6049 32.2117C60.9996 32.2755 61.3384 32.407 61.6294 32.6064C61.9164 32.8057 62.1516 33.0648 62.327 33.3837C62.5024 33.7025 62.618 34.0772 62.6738 34.5038L66.9191 33.7544C66.8154 32.7299 66.5524 31.853 66.1298 31.1155C65.7073 30.3781 65.1532 29.7961 64.4716 29.3576C63.7939 28.9191 63.0046 28.6321 62.1117 28.5006C61.2148 28.3651 60.2422 28.393 59.1898 28.5803C57.6432 28.8514 56.248 29.4453 55.0043 30.3542C53.7606 31.263 52.7721 32.4509 52.0386 33.9098C51.3091 35.3688 50.9424 37.0549 50.9424 38.9683C50.9424 40.8816 51.3011 42.4323 52.0226 43.6361C52.7402 44.8399 53.7208 45.681 54.9645 46.1553C56.2082 46.6297 57.6153 46.7294 59.1898 46.4503C60.3857 46.2391 61.446 45.8723 62.3708 45.3462C63.2956 44.82 64.0809 44.1941 64.7267 43.4647C65.3724 42.7352 65.8787 41.9659 66.2494 41.1527C66.6201 40.3395 66.8433 39.5423 66.9151 38.757L62.6698 39.4785C62.598 39.909 62.4625 40.3076 62.2752 40.6744C62.0838 41.0371 61.8446 41.36 61.5537 41.643C61.2627 41.922 60.9238 42.1572 60.5412 42.3446C60.1585 42.5319 59.7359 42.6635 59.2696 42.7472C58.4444 42.8947 57.7269 42.8229 57.125 42.5359C56.5231 42.2489 56.0567 41.7466 55.7218 41.0251C55.391 40.3036 55.2236 39.3669 55.2236 38.2109C55.2236 37.0549 55.387 36.1261 55.7139 35.289C56.0407 34.4519 56.5071 33.7703 57.117 33.2481H57.125Z" fill="white"/>
<path d="M46.136 22.0209L42.5684 23.4679L44.5216 30.081C45.275 29.8219 45.9686 29.487 46.6064 29.0725C47.7106 28.355 48.5716 27.4621 49.1894 26.3938C49.8073 25.3255 50.1142 24.1416 50.1142 22.8461V11.625L47.579 12.0715L46.136 22.0209Z" fill="white"/>
<path d="M41.348 19.7892L38.0912 13.7422L35.3926 14.2165V25.4376C35.3926 26.7331 35.6995 27.8094 36.3094 28.6624C36.9193 29.5155 37.7803 30.1054 38.8845 30.4323C39.9887 30.7631 41.2802 30.795 42.7591 30.5359C43.2494 30.4482 43.7158 30.3366 44.1662 30.1971L36.995 23.6837L41.352 19.7892H41.348Z" fill="white"/>
</svg>
