<svg width="18" height="17" viewBox="0 0 18 17" fill="none" xmlns="http://www.w3.org/2000/svg">
<path d="M17.5 13.6946L10.668 1.82974C10.4972 1.53906 10.2535 1.29803 9.96094 1.13057C9.66837 0.9631 9.33711 0.875 9 0.875C8.66289 0.875 8.33163 0.9631 8.03906 1.13057C7.74648 1.29803 7.50276 1.53906 7.33203 1.82974L0.499999 13.6946C0.33573 13.9757 0.249161 14.2955 0.249161 14.6211C0.249161 14.9468 0.33573 15.2665 0.499999 15.5477C0.668538 15.8401 0.91185 16.0825 1.20497 16.2498C1.49809 16.4172 1.83045 16.5036 2.16797 16.5001H15.832C16.1693 16.5033 16.5013 16.4168 16.7941 16.2494C17.087 16.0821 17.33 15.8399 17.4984 15.5477C17.6629 15.2667 17.7498 14.947 17.7501 14.6214C17.7503 14.2957 17.664 13.9759 17.5 13.6946ZM8.375 7.12505C8.375 6.95929 8.44085 6.80032 8.55806 6.68311C8.67527 6.5659 8.83424 6.50005 9 6.50005C9.16576 6.50005 9.32473 6.5659 9.44194 6.68311C9.55915 6.80032 9.625 6.95929 9.625 7.12505V10.2501C9.625 10.4158 9.55915 10.5748 9.44194 10.692C9.32473 10.8092 9.16576 10.8751 9 10.8751C8.83424 10.8751 8.67527 10.8092 8.55806 10.692C8.44085 10.5748 8.375 10.4158 8.375 10.2501V7.12505ZM9 14.0001C8.81458 14.0001 8.63332 13.9451 8.47915 13.8421C8.32498 13.739 8.20482 13.5926 8.13386 13.4213C8.0629 13.25 8.04434 13.0615 8.08051 12.8797C8.11669 12.6978 8.20597 12.5308 8.33709 12.3996C8.4682 12.2685 8.63524 12.1792 8.8171 12.1431C8.99896 12.1069 9.18746 12.1255 9.35876 12.1964C9.53007 12.2674 9.67649 12.3875 9.7795 12.5417C9.88251 12.6959 9.9375 12.8771 9.9375 13.0626C9.9375 13.3112 9.83873 13.5496 9.66291 13.7255C9.4871 13.9013 9.24864 14.0001 9 14.0001Z" fill="#FFDC82"/>
</svg>
