<svg width="720" height="960" viewBox="0 0 720 960" fill="none" xmlns="http://www.w3.org/2000/svg">
<g clip-path="url(#clip0_614_68279)">
<g clip-path="url(#clip1_614_68279)">
<path opacity="0.1" d="M853 76.292V1372.79H-3073.5V121.735C-3073.5 121.735 -3038.7 123.329 -3016.5 121.735C-2948.78 116.876 -2917.61 77.8986 -2850 71.7351C-2766.72 64.1429 -2721.98 110.237 -2638.5 105.292C-2568.25 101.131 -2533.75 58.0619 -2463.5 62.2919C-2395.87 66.3646 -2368.13 117.622 -2300.5 121.735C-2225.23 126.313 -2189.37 74.0793 -2114 71.7351C-2043.1 69.5301 -2006.42 106.468 -1935.5 105.292C-1861.34 104.062 -1824.65 60.5894 -1750.5 62.2919C-1670.54 64.1279 -1634.47 123.394 -1554.5 121.735C-1486.06 120.315 -1454.86 75.2872 -1386.5 71.7351C-1317.01 68.1242 -1281.08 106.293 -1211.5 105.292C-1137.91 104.233 -1101.54 65.3342 -1028 62.2919C-938.618 58.5943 -892.423 102.797 -803 105.292C-799.5 105.39 -763.5 109.196 -742.5 105.292C-677.59 93.2265 -645.021 62.5368 -579 62.2919C-512.034 62.0436 -479.754 99.9563 -413 105.292C-330.089 111.919 -284.625 66.7405 -202 76.292C-144.739 82.9113 -117.986 114.06 -60.5 118.292C26.2183 124.677 68.0757 60.0541 155 62.2919C223.836 64.0641 257.226 101.874 326 105.292C398.269 108.884 436.653 75.0468 509 76.292C575.444 77.4355 610.049 105.703 676.5 106.292C746.413 106.912 853 76.292 853 76.292Z" fill="white"/>
</g>
</g>
<defs>
<clipPath id="clip0_614_68279">
<rect width="720" height="960" fill="white"/>
</clipPath>
<clipPath id="clip1_614_68279">
<rect width="8121" height="1310.79" fill="white" transform="translate(-7000 62)"/>
</clipPath>
</defs>
</svg>
