<svg width="720" height="960" viewBox="0 0 720 960" fill="none" xmlns="http://www.w3.org/2000/svg">
<g clip-path="url(#clip0_614_68274)">
<g clip-path="url(#clip1_614_68274)">
<path opacity="0.1" d="M2053 76.292V1372.79H-1873.5V121.735C-1873.5 121.735 -1838.7 123.329 -1816.5 121.735C-1748.78 116.876 -1717.61 77.8986 -1650 71.7351C-1566.72 64.1429 -1521.98 110.237 -1438.5 105.292C-1368.25 101.131 -1333.75 58.0619 -1263.5 62.2919C-1195.87 66.3646 -1168.13 117.622 -1100.5 121.735C-1025.23 126.313 -989.368 74.0793 -914 71.7351C-843.104 69.5301 -806.42 106.468 -735.5 105.292C-661.337 104.062 -624.653 60.5894 -550.5 62.2919C-470.536 64.1279 -434.468 123.394 -354.5 121.735C-286.062 120.315 -254.86 75.2872 -186.5 71.7351C-117.007 68.1242 -81.0796 106.293 -11.5 105.292C62.0948 104.233 98.4604 65.3342 172 62.2919C261.382 58.5943 307.577 102.797 397 105.292C400.5 105.39 436.5 109.196 457.5 105.292C522.41 93.2265 554.979 62.5368 621 62.2919C687.966 62.0436 720.246 99.9563 787 105.292C869.911 111.919 915.375 66.7405 998 76.292C1055.26 82.9113 1082.01 114.06 1139.5 118.292C1226.22 124.677 1268.08 60.0541 1355 62.2919C1423.84 64.0641 1457.23 101.874 1526 105.292C1598.27 108.884 1636.65 75.0468 1709 76.292C1775.44 77.4355 1810.05 105.703 1876.5 106.292C1946.41 106.912 2053 76.292 2053 76.292Z" fill="white"/>
</g>
</g>
<defs>
<clipPath id="clip0_614_68274">
<rect width="720" height="960" fill="white"/>
</clipPath>
<clipPath id="clip1_614_68274">
<rect width="8121" height="1310.79" fill="white" transform="translate(-5800 62)"/>
</clipPath>
</defs>
</svg>
